<svg width="54" height="47" viewBox="0 0 54 47" fill="none" xmlns="http://www.w3.org/2000/svg">
<path d="M52.9853 42.6096L29.2199 1.44814C28.9606 1.0072 28.5907 0.641624 28.1468 0.387621C27.7028 0.133618 27.2002 0 26.6887 0C26.1772 0 25.6746 0.133618 25.2306 0.387621C24.7867 0.641624 24.4167 1.0072 24.1575 1.44814L0.392139 42.6096C0.135399 43.0543 0.000160318 43.5587 1.42449e-07 44.0721C-0.000160033 44.5856 0.134764 45.0901 0.391226 45.5349C0.647689 45.9798 1.01666 46.3493 1.46111 46.6065C1.90556 46.8637 2.40983 46.9994 2.92331 47H50.4541C50.9654 46.9939 51.4663 46.8548 51.9076 46.5963C52.3488 46.3378 52.7151 45.969 52.9705 45.5259C53.2259 45.0829 53.3616 44.5811 53.3642 44.0697C53.3668 43.5583 53.2362 43.0551 52.9853 42.6096Z" fill="url(#paint0_linear_119_181)"/>
<path d="M27.1029 14.3066H26.2745C24.6834 14.3066 23.3936 15.5965 23.3936 17.1876V29.3464C23.3936 30.9375 24.6834 32.2273 26.2745 32.2273H27.1029C28.694 32.2273 29.9838 30.9375 29.9838 29.3464V17.1876C29.9838 15.5965 28.694 14.3066 27.1029 14.3066Z" fill="url(#paint1_linear_119_181)"/>
<path d="M26.6887 34.8323C25.8148 34.8323 24.9766 35.1794 24.3587 35.7974C23.7407 36.4153 23.3936 37.2535 23.3936 38.1274C23.3936 39.0013 23.7407 39.8394 24.3587 40.4574C24.9766 41.0754 25.8148 41.4225 26.6887 41.4225C27.5626 41.4225 28.4007 41.0754 29.0187 40.4574C29.6366 39.8394 29.9838 39.0013 29.9838 38.1274C29.9838 37.2535 29.6366 36.4153 29.0187 35.7974C28.4007 35.1794 27.5626 34.8323 26.6887 34.8323Z" fill="url(#paint2_linear_119_181)"/>
<defs>
<linearGradient id="paint0_linear_119_181" x1="-0.0036443" y1="23.5015" x2="53.3902" y2="23.5015" gradientUnits="userSpaceOnUse">
<stop stop-color="#FFE500"/>
<stop offset="1" stop-color="#FCB415"/>
</linearGradient>
<linearGradient id="paint1_linear_119_181" x1="23.3936" y1="20.5011" x2="29.9838" y2="20.5011" gradientUnits="userSpaceOnUse">
<stop stop-color="#141C2C"/>
<stop offset="0.84" stop-color="#090D14"/>
<stop offset="1" stop-color="#070A0F"/>
</linearGradient>
<linearGradient id="paint2_linear_119_181" x1="23.4304" y1="38.1274" x2="29.947" y2="38.1274" gradientUnits="userSpaceOnUse">
<stop stop-color="#141C2C"/>
<stop offset="0.84" stop-color="#090D14"/>
<stop offset="1" stop-color="#070A0F"/>
</linearGradient>
</defs>
</svg>
