<svg width="50" height="48" viewBox="0 0 50 48" fill="none" xmlns="http://www.w3.org/2000/svg">
<path d="M27 2C25.6666 9.66667 26.1 27.2 38.5 36C43.3 38.8 46.8333 42.1667 48 43.5" stroke="#F73D31" stroke-width="3" stroke-linecap="round"/>
<path d="M26.5 12C25 19.8333 20.6 36.7 15 41.5C9.4 46.3 4 46.1667 2 45.5" stroke="#F73D31" stroke-width="3" stroke-linecap="round"/>
<path d="M22.5 28C23.1667 30.1667 25 34.9 27 36.5" stroke="#F73D31" stroke-width="3" stroke-linecap="round"/>
<path d="M16.5 40.5C18.5 44.5 20.6667 45.1667 21.5 45" stroke="#F73D31" stroke-width="3" stroke-linecap="round"/>
<path d="M23 23C13 22.6 10.5 20.8333 10.5 20" stroke="#F73D31" stroke-width="3" stroke-linecap="round"/>
<path d="M18 37C15.5 37.5 9.9 38.2 7.5 37" stroke="#F73D31" stroke-width="3" stroke-linecap="round"/>
<path d="M29 23C32.6667 23.3333 40.3 23.8 41.5 23" stroke="#F73D31" stroke-width="3" stroke-linecap="round"/>
<path d="M37.5 35.5C40.1667 36 45.7 36.7 46.5 35.5" stroke="#F73D31" stroke-width="3" stroke-linecap="round"/>
<path d="M36 34.5C36.5 36.8333 37.2 41.9 36 43.5" stroke="#F73D31" stroke-width="3" stroke-linecap="round"/>
</svg>
