<svg width="31" height="40" viewBox="0 0 31 40" fill="none" xmlns="http://www.w3.org/2000/svg">
<path d="M24.089 21.2384C24.2316 22.2362 24.8017 23.0914 25.7995 23.8041C26.6547 24.3743 27.9376 24.5168 28.6503 24.6594C28.3652 23.6616 28.0801 22.6638 27.9376 21.9511C27.6525 20.2406 27.0824 18.6727 26.3697 17.2473C25.942 17.5324 25.657 17.96 25.2293 18.2451C24.3741 19.2429 23.9465 20.3832 24.089 21.2384Z" fill="#F73D31"/>
<path d="M29.078 27.5101C28.793 27.5101 26.2273 27.5101 24.2317 26.2273C22.5212 25.0869 21.3809 23.3765 21.2384 21.666C21.0958 19.813 21.8085 17.96 23.2339 16.392C25.6571 13.8263 28.6504 12.5435 30.0758 11.9733V7.12697C30.0758 6.69935 29.7907 6.27173 29.5057 5.98665C29.078 5.70158 28.6504 5.70158 28.2228 5.70158L26.5123 6.27173C24.8019 6.84189 23.0914 7.41205 21.5235 8.12475V6.41427C21.5235 4.41872 19.9555 2.85079 17.96 2.85079C17.6749 2.85079 17.3898 2.85079 17.2473 2.99333C16.8197 1.28285 15.3943 0 13.6838 0C11.6882 0 10.1203 1.56793 10.1203 3.56349V5.70158H6.98443C4.7038 5.70158 2.99333 7.41205 2.99333 9.69268V11.9733C5.4165 10.4054 8.55236 9.55014 11.9733 9.55014C13.9689 9.55014 15.8219 9.83522 17.6749 10.2628C18.5301 9.83522 19.2428 9.4076 20.0981 8.97998C20.8108 8.6949 21.666 8.97998 21.9511 9.69268C22.2361 10.4054 21.9511 11.2606 21.2384 11.5457C15.6793 14.2539 10.6905 18.245 6.84189 23.2339C6.55681 23.6615 6.12919 23.8041 5.70158 23.8041C5.4165 23.8041 5.13142 23.6615 4.84634 23.519C4.27618 23.0914 4.13364 22.0936 4.56126 21.5235C7.26951 18.1025 10.4054 15.1092 13.9689 12.686C13.2562 12.686 12.5435 12.5435 11.8308 12.5435C4.84634 12.5435 0 16.5346 0 22.3787C0.142539 32.7841 12.2584 39.911 20.3831 39.911C24.3742 39.911 27.0825 38.9133 28.6504 36.7752C30.646 34.2095 30.2184 30.646 29.5057 27.3676C29.3631 27.5101 29.2206 27.5101 29.078 27.5101Z" fill="#F73D31"/>
</svg>
