<svg width="41" height="31" viewBox="0 0 41 31" fill="none" xmlns="http://www.w3.org/2000/svg">
<path d="M27.5846 17.5284C27.3158 17.2815 27.0682 17.0125 26.8443 16.7243C25.963 15.585 25.4844 14.1856 25.4835 12.7452C25.4835 12.5334 25.4835 12.3216 25.5135 12.1154C24.8811 11.6185 24.1812 11.214 23.4349 10.914C22.4711 11.4323 21.3922 11.6991 20.2979 11.6896C19.2036 11.6801 18.1294 11.3946 17.1747 10.8596C16.4467 11.1392 15.7605 11.5176 15.1355 11.9842C15.1657 12.2367 15.1807 12.4908 15.1805 12.7452C15.1816 14.1786 14.7077 15.572 13.8329 16.7075C13.5816 17.0317 13.3005 17.3317 12.9932 17.6034C15.1326 18.6887 16.8069 20.5115 17.707 22.7352H22.7133C23.6357 20.4559 25.3717 18.6003 27.5846 17.5284Z" fill="#F73D31"/>
<path d="M37.9248 20.3645C37.1103 19.5493 36.1393 18.9073 35.0703 18.477C34.1068 18.9952 33.0283 19.262 31.9344 19.2528C30.8405 19.2436 29.7666 18.9588 28.812 18.4246L28.7838 18.4358C27.1743 19.0593 25.7911 20.155 24.8156 21.579C23.8402 23.003 23.3183 24.6887 23.3184 26.4147V28.3378C23.3181 28.5954 23.3686 28.8505 23.4671 29.0886C23.5655 29.3267 23.7098 29.543 23.8919 29.7253C24.074 29.9075 24.2902 30.0521 24.5282 30.1508C24.7662 30.2494 25.0213 30.3002 25.2789 30.3002H38.4684C38.9888 30.3002 39.488 30.0934 39.856 29.7254C40.224 29.3574 40.4308 28.8582 40.4308 28.3378V26.4147C40.4323 25.2909 40.2118 24.1778 39.7817 23.1395C39.3516 22.1012 38.7206 21.1581 37.9248 20.3645Z" fill="#F73D31"/>
<path d="M35.5534 8.96669C35.5386 8.95136 35.523 8.93696 35.5065 8.92358C35.4653 8.88422 35.4203 8.84673 35.3772 8.80925L35.3266 8.76426C35.2816 8.72678 35.2385 8.69117 35.1935 8.65743L35.1373 8.61244C35.0923 8.57871 35.0473 8.54497 35.0004 8.51311L34.9423 8.47187L34.8018 8.37816L34.7399 8.3388L34.5956 8.2507L34.5319 8.21509L34.3838 8.1345L34.3182 8.10076L34.1645 8.02766L34.0989 7.99767C34.0464 7.97518 33.9939 7.95081 33.9415 7.9302L33.8759 7.90396L33.7109 7.8421L33.6472 7.82149L33.4748 7.76713C33.456 7.76713 33.4354 7.75589 33.4166 7.75026L33.2292 7.70153L33.1749 7.68841L32.9874 7.64718H32.9462L32.7381 7.61156H32.725C32.4767 7.57654 32.2261 7.559 31.9753 7.55908C31.6463 7.5588 31.318 7.59019 30.995 7.6528H30.9782L30.7664 7.69966H30.7326L30.5452 7.75214L30.5021 7.76526L30.3147 7.82524L30.2659 7.8421L30.0879 7.90771L30.0354 7.92832C29.9792 7.95081 29.9229 7.97518 29.8667 8.00142L29.8105 8.02579C29.7561 8.05015 29.7018 8.07639 29.6493 8.10451L29.5912 8.13262L29.4356 8.21697L29.3794 8.2507C29.3288 8.27882 29.2782 8.30881 29.2294 8.34067L29.1713 8.37628L29.0289 8.47187L28.9727 8.51311C28.9258 8.54684 28.879 8.57871 28.834 8.61432L28.7777 8.65743L28.6465 8.76426L28.5922 8.81112L28.4647 8.92358L28.416 8.97044C28.3748 9.0098 28.3317 9.04916 28.2923 9.09039L28.2473 9.13538L28.1255 9.2647L28.0974 9.30031C27.9686 9.44428 27.8484 9.59574 27.7375 9.7539C27.7188 9.78014 27.7 9.8045 27.6831 9.83074L27.6157 9.9357C27.5932 9.96944 27.5707 10.0013 27.5501 10.035C27.5295 10.0688 27.5107 10.1044 27.492 10.1381C27.4732 10.1719 27.447 10.2112 27.4282 10.2487L27.3739 10.3499C27.3533 10.3893 27.3326 10.4268 27.3139 10.468C27.2952 10.5092 27.282 10.5355 27.267 10.5692L27.2108 10.691C27.1958 10.7267 27.1827 10.7604 27.1696 10.7941C27.1565 10.8279 27.134 10.8785 27.119 10.9216C27.104 10.9647 27.0927 10.9909 27.0815 11.0266L27.0365 11.1578C27.0253 11.1934 27.014 11.229 27.0046 11.2646C26.9953 11.3002 26.9784 11.3527 26.9672 11.3977C26.9559 11.4426 26.9484 11.4708 26.939 11.5064C26.9297 11.542 26.9166 11.5963 26.9072 11.6413L26.8847 11.7538C26.8753 11.7988 26.8678 11.8437 26.8603 11.8887C26.8528 11.9337 26.8472 11.9675 26.8416 12.0068L26.8247 12.1399C26.8247 12.1811 26.8153 12.2205 26.8116 12.2617C26.8078 12.303 26.8116 12.2936 26.8116 12.3105C26.8107 12.3248 26.8107 12.3392 26.8116 12.3536C26.8022 12.4698 26.7966 12.5878 26.7966 12.7059C26.7957 12.719 26.7957 12.7322 26.7966 12.7453C26.7966 12.8577 26.8003 12.9683 26.8078 13.077C26.8208 13.2992 26.8484 13.5202 26.8903 13.7387C26.8892 13.7344 26.8892 13.7299 26.8903 13.7256C27.1184 14.9095 27.7514 15.9771 28.6808 16.7453C29.6102 17.5134 30.7779 17.9341 31.9836 17.9352C33.1893 17.9363 34.3578 17.5178 35.2886 16.7513C36.2194 15.9849 36.8544 14.9184 37.0847 13.7349C37.0847 13.7106 37.0847 13.6843 37.0978 13.66C37.1109 13.6356 37.1147 13.5625 37.1222 13.5119C37.1296 13.4613 37.1409 13.3807 37.1484 13.3151V13.2682C37.1653 13.0939 37.1746 12.9196 37.1746 12.7415V12.7097C37.1746 12.5897 37.1746 12.4698 37.1578 12.3517C37.1587 12.3348 37.1587 12.3179 37.1578 12.3011V12.2486C37.1578 12.2149 37.1578 12.1811 37.1465 12.1474C37.1353 12.1136 37.1353 12.0443 37.1278 11.9918C37.1203 11.9393 37.1278 11.9262 37.1128 11.8944L37.0847 11.7388C37.0847 11.7088 37.0715 11.6769 37.0659 11.6451C37.0603 11.6132 37.0416 11.542 37.0303 11.4914L37.0059 11.3995C36.9928 11.3489 36.9778 11.3002 36.9647 11.2515C36.9516 11.2027 36.946 11.1877 36.9347 11.1578C36.9235 11.1278 36.9029 11.0622 36.886 11.0134C36.8691 10.9647 36.8654 10.9516 36.8541 10.9216C36.8429 10.8916 36.8185 10.8279 36.7998 10.7829L36.7604 10.6892C36.7417 10.6442 36.7211 10.6011 36.7004 10.558C36.6798 10.5149 36.6723 10.4942 36.6573 10.4643L36.5936 10.3406L36.543 10.245C36.5224 10.2056 36.4999 10.1681 36.4774 10.1306C36.4549 10.0931 36.4399 10.0632 36.4193 10.0313L36.3537 9.92821C36.3312 9.89447 36.3106 9.85886 36.2862 9.82512L36.2319 9.7464C36.1153 9.58304 35.9902 9.426 35.857 9.27595L35.8439 9.26095L35.7164 9.126L35.6789 9.08664C35.6396 9.05291 35.5965 9.00792 35.5534 8.96669Z" fill="#F73D31"/>
<path d="M12.2194 8.96669C12.2047 8.95136 12.189 8.93696 12.1725 8.92358C12.1313 8.88422 12.0863 8.84673 12.0432 8.80925L11.9926 8.76426C11.9476 8.72678 11.9045 8.69117 11.8595 8.65743L11.8033 8.61244C11.7583 8.57871 11.7133 8.54497 11.6665 8.51311L11.6084 8.47187L11.4678 8.37816L11.4059 8.3388L11.2616 8.2507L11.1979 8.21509L11.0498 8.1345L10.9842 8.10076L10.8305 8.02766L10.7649 7.99767C10.7124 7.97518 10.6599 7.95081 10.6075 7.9302L10.5419 7.90396L10.3769 7.8421L10.3132 7.82149L10.1408 7.76713C10.122 7.76713 10.1014 7.75589 10.0827 7.75026L9.89523 7.70153L9.84088 7.68841L9.65345 7.64718H9.61221L9.40416 7.61156H9.39105C9.14267 7.57654 8.89215 7.559 8.64132 7.55908C8.31232 7.5588 7.98405 7.59019 7.66106 7.6528H7.64419L7.43239 7.69966H7.39866L7.21123 7.75214L7.16812 7.76526L6.98069 7.82524L6.93195 7.8421L6.75389 7.90771L6.70141 7.92832C6.64519 7.95081 6.58896 7.97518 6.53273 8.00142L6.4765 8.02579C6.42214 8.05015 6.36779 8.07639 6.31531 8.10451L6.2572 8.13262L6.10164 8.21697L6.04541 8.2507C5.9948 8.27882 5.94419 8.30881 5.89546 8.34067L5.83736 8.37628L5.69491 8.47187L5.63868 8.51311C5.59183 8.54684 5.54497 8.57871 5.49998 8.61432L5.44376 8.65743L5.31255 8.76426L5.2582 8.81112L5.13074 8.92358L5.08201 8.97044C5.04078 9.0098 4.99767 9.04916 4.95831 9.09039L4.91333 9.13538L4.7915 9.2647L4.76338 9.30031C4.63459 9.44428 4.51442 9.59574 4.40352 9.7539C4.38477 9.78014 4.36603 9.8045 4.34916 9.83074L4.28168 9.9357C4.25919 9.96944 4.2367 10.0013 4.21609 10.035C4.19547 10.0688 4.17673 10.1044 4.15798 10.1381C4.13924 10.1719 4.113 10.2112 4.09425 10.2487L4.0399 10.3499C4.01928 10.3893 3.99866 10.4268 3.97992 10.468C3.96118 10.5092 3.94806 10.5355 3.93306 10.5692L3.87684 10.691C3.86184 10.7267 3.84872 10.7604 3.8356 10.7941C3.82248 10.8279 3.79999 10.8785 3.78499 10.9216C3.77 10.9647 3.75875 10.9909 3.74751 11.0266L3.70252 11.1578C3.69128 11.1934 3.68003 11.229 3.67066 11.2646C3.66129 11.3002 3.64442 11.3527 3.63318 11.3977C3.62193 11.4426 3.61443 11.4708 3.60506 11.5064C3.59569 11.542 3.58257 11.5963 3.5732 11.6413L3.55071 11.7538C3.54133 11.7988 3.53384 11.8437 3.52634 11.8887C3.51884 11.9337 3.51322 11.9675 3.5076 12.0068L3.49073 12.1399C3.49073 12.1811 3.48136 12.2205 3.47761 12.2617C3.47386 12.303 3.47761 12.2936 3.47761 12.3105C3.47667 12.3248 3.47667 12.3392 3.47761 12.3536C3.46824 12.4698 3.46261 12.5878 3.46261 12.7059C3.46168 12.719 3.46168 12.7322 3.46261 12.7453C3.46261 12.8577 3.46636 12.9683 3.47386 13.077C3.48687 13.2992 3.51441 13.5202 3.55633 13.7387C3.55522 13.7344 3.55522 13.7299 3.55633 13.7256C3.78442 14.9095 4.41746 15.9771 5.34683 16.7453C6.27619 17.5134 7.44393 17.9341 8.64964 17.9352C9.85535 17.9363 11.0239 17.5178 11.9546 16.7513C12.8854 15.9849 13.5204 14.9184 13.7507 13.7349C13.7507 13.7106 13.7507 13.6843 13.7638 13.66C13.7769 13.6356 13.7807 13.5625 13.7882 13.5119C13.7957 13.4613 13.8069 13.3807 13.8144 13.3151V13.2682C13.8313 13.0939 13.8406 12.9196 13.8406 12.7415V12.7097C13.8406 12.5897 13.8406 12.4698 13.8238 12.3517C13.8247 12.3348 13.8247 12.3179 13.8238 12.3011V12.2486C13.8238 12.2149 13.8238 12.1811 13.8125 12.1474C13.8013 12.1136 13.8013 12.0443 13.7938 11.9918C13.7863 11.9393 13.7938 11.9262 13.7788 11.8944L13.7507 11.7388C13.7507 11.7088 13.7376 11.6769 13.7319 11.6451C13.7263 11.6132 13.7076 11.542 13.6963 11.4914L13.672 11.3995C13.6588 11.3489 13.6438 11.3002 13.6307 11.2515C13.6176 11.2027 13.612 11.1877 13.6007 11.1578C13.5895 11.1278 13.5689 11.0622 13.552 11.0134C13.5351 10.9647 13.5314 10.9516 13.5201 10.9216C13.5089 10.8916 13.4845 10.8279 13.4658 10.7829L13.4264 10.6892C13.4077 10.6442 13.3871 10.6011 13.3664 10.558C13.3458 10.5149 13.3383 10.4942 13.3233 10.4643L13.2596 10.3406L13.209 10.245C13.1884 10.2056 13.1659 10.1681 13.1434 10.1306C13.1209 10.0931 13.1059 10.0632 13.0853 10.0313L13.0197 9.92821C12.9972 9.89447 12.9766 9.85886 12.9522 9.82512L12.8979 9.7464C12.7814 9.58304 12.6562 9.426 12.523 9.27595L12.5099 9.26095L12.3824 9.126L12.345 9.08664C12.3056 9.05291 12.2625 9.00792 12.2194 8.96669Z" fill="#F73D31"/>
<path d="M14.6065 20.3645C13.792 19.5493 12.821 18.9073 11.7519 18.477C10.7886 18.9957 9.71001 19.2628 8.61602 19.2536C7.52203 19.2444 6.44805 18.9593 5.49359 18.4246C3.8775 19.0449 2.48741 20.1406 1.50667 21.567C0.525927 22.9934 0.000608227 24.6837 0 26.4147V28.3378C0 28.5955 0.0507589 28.8507 0.149379 29.0887C0.247998 29.3268 0.392548 29.5432 0.574773 29.7254C0.756999 29.9076 0.973332 30.0522 1.21142 30.1508C1.44951 30.2494 1.70469 30.3002 1.9624 30.3002H15.1519C15.4095 30.3002 15.6646 30.2494 15.9026 30.1508C16.1406 30.0521 16.3568 29.9075 16.5389 29.7253C16.7209 29.543 16.8653 29.3267 16.9637 29.0886C17.0621 28.8505 17.1127 28.5954 17.1124 28.3378V26.4147C17.1137 25.2909 16.8929 24.1779 16.4629 23.1397C16.0329 22.1014 15.402 21.1583 14.6065 20.3645Z" fill="#F73D31"/>
<path d="M15.1653 5.44299V5.52546C15.1653 5.58356 15.1653 5.64166 15.1784 5.69977C15.1915 5.75787 15.1784 5.78223 15.1934 5.82347C15.2084 5.8647 15.1934 5.90594 15.2084 5.94717C15.2234 5.98841 15.2309 6.07463 15.2421 6.1346V6.17397C15.4768 7.37718 16.1295 8.45864 17.0846 9.22712C18.0397 9.99561 19.2358 10.4016 20.4614 10.3733C21.6869 10.3451 22.863 9.88436 23.7817 9.07266C24.7004 8.26096 25.3024 7.15056 25.4814 5.9378C25.4814 5.91531 25.4814 5.89469 25.4908 5.8722C25.4908 5.81222 25.5058 5.75412 25.5114 5.68477C25.5171 5.61542 25.5114 5.59668 25.5227 5.5517C25.5339 5.50671 25.5227 5.47297 25.5227 5.43174C25.5227 5.34552 25.5227 5.2593 25.5227 5.17309C25.5227 5.03626 25.5227 4.90131 25.5058 4.76824C25.5049 4.75638 25.5049 4.74448 25.5058 4.73262C25.5049 4.72014 25.5049 4.70762 25.5058 4.69514C25.5058 4.64828 25.4964 4.60142 25.4908 4.55269C25.4852 4.50396 25.4908 4.47772 25.4758 4.44023C25.4608 4.40275 25.4627 4.35027 25.4552 4.30528C25.4477 4.2603 25.4402 4.22656 25.4346 4.1872L25.4065 4.05975C25.4065 4.01851 25.3896 3.97915 25.3802 3.93979C25.3709 3.90043 25.3596 3.85732 25.3484 3.81609L25.3146 3.69801C25.3034 3.65865 25.2903 3.61741 25.2771 3.57805C25.266 3.53867 25.2529 3.49989 25.2378 3.46184C25.2247 3.42248 25.2115 3.38312 25.1966 3.34376L25.1516 3.2313C25.1366 3.19194 25.1197 3.15258 25.1028 3.1151C25.086 3.07761 25.071 3.042 25.0541 3.00451C25.0372 2.96703 25.0185 2.92767 24.9998 2.89018L24.9473 2.78709L24.8873 2.67276L24.8311 2.5753C24.8086 2.53781 24.788 2.49845 24.7636 2.46096C24.7392 2.42348 24.7261 2.40286 24.7074 2.37287C24.6886 2.34288 24.6586 2.29415 24.6324 2.25479L24.5837 2.18732C24.4772 2.03335 24.3627 1.88508 24.2407 1.7431L24.2088 1.70562C24.1732 1.66626 24.1357 1.62877 24.0982 1.58941C24.0607 1.55005 24.0626 1.55005 24.042 1.53131C24.0214 1.51257 23.9708 1.46009 23.9333 1.42447L23.8677 1.36262C23.8321 1.32888 23.7946 1.29702 23.7571 1.26516L23.6859 1.20331L23.5734 1.11146L23.4966 1.05149L23.3822 0.967142L23.2979 0.909039L23.1835 0.832192L23.0955 0.775962L22.9774 0.704739L22.8837 0.650384L22.7675 0.581035L22.6681 0.530428L22.5482 0.472325L22.4451 0.425468L22.3232 0.374861L22.2164 0.331752C22.1752 0.316758 22.1358 0.299889 22.0946 0.286769L21.9802 0.247408L21.8603 0.208048L21.7403 0.174311L21.6204 0.142447L21.4929 0.114333L21.3748 0.0880919L21.2399 0.0637264L21.1256 0.044983L20.9794 0.0262402L20.8725 0.0131201L20.7057 0H20.6157C20.5295 0 20.4433 0 20.3552 0C20.2671 0 20.1809 0 20.0947 0C20.0647 0 20.0366 0 20.0066 0L19.8379 0.0131201L19.7348 0.0243662L19.583 0.044983L19.4743 0.0637264L19.3337 0.0880919L19.2213 0.112458L19.0901 0.142447L18.9757 0.174311L18.8483 0.209922L18.7339 0.245534L18.6121 0.286769L18.4997 0.329878L18.3816 0.376735L18.2691 0.43109L18.1567 0.481697L18.0461 0.536052L17.9374 0.590406L17.8287 0.650384C17.793 0.669127 17.7593 0.689744 17.7256 0.710362L17.6169 0.774089L17.5175 0.837815L17.4126 0.909039C17.3807 0.929656 17.3507 0.954023 17.3188 0.976514L17.2158 1.05149L17.1258 1.12084L17.0246 1.20331L16.9402 1.2764L16.8428 1.36262L16.764 1.43759L16.6666 1.53131L16.5972 1.60441L16.4998 1.70749L16.4454 1.77122C16.3202 1.91429 16.2026 2.06381 16.093 2.21918C16.0818 2.23792 16.0687 2.25479 16.0556 2.27353C16.0424 2.29228 15.9993 2.35975 15.9712 2.40286C15.9431 2.44597 15.9394 2.45159 15.9244 2.47783C15.9094 2.50407 15.8738 2.56218 15.8494 2.60529L15.8025 2.68776C15.7782 2.73086 15.7557 2.77397 15.7332 2.81708L15.6882 2.90517C15.6676 2.94828 15.647 2.99327 15.6282 3.03638C15.6095 3.07949 15.6001 3.09635 15.587 3.12822C15.5739 3.16008 15.5495 3.21818 15.5308 3.26317C15.512 3.30815 15.5064 3.32502 15.4951 3.35501C15.4839 3.385 15.4614 3.44685 15.4445 3.49371L15.4127 3.58742C15.3977 3.63615 15.3827 3.68301 15.3696 3.73174C15.3564 3.78048 15.3508 3.7936 15.3433 3.82358L15.304 3.97353C15.304 4.00352 15.2908 4.03351 15.2833 4.0635C15.2758 4.09348 15.2609 4.16846 15.2515 4.22094C15.2421 4.27342 15.2402 4.27904 15.2365 4.30716C15.2327 4.33527 15.2177 4.41774 15.2102 4.47209C15.2027 4.52645 15.2102 4.52645 15.2102 4.55456C15.2102 4.61079 15.1953 4.6689 15.1915 4.72888C15.1915 4.72888 15.1915 4.74574 15.1915 4.75512V4.77948C15.1803 4.91443 15.1728 5.05126 15.1728 5.18995C15.1578 5.27055 15.1596 5.35677 15.1653 5.44299Z" fill="#F73D31"/>
</svg>
